<?xml version="1.0" standalone="no"?>
<!DOCTYPE svg PUBLIC "-//W3C//DTD SVG 20010904//EN"
 "http://www.w3.org/TR/2001/REC-SVG-20010904/DTD/svg10.dtd">
<svg version="1.0" xmlns="http://www.w3.org/2000/svg"
 width="700.000000pt" height="700.000000pt" viewBox="0 0 700.000000 700.000000"
 preserveAspectRatio="xMidYMid meet">
<metadata>
Created by potrace 1.11, written by Peter Selinger 2001-2013
</metadata>
<g transform="translate(0.000000,700.000000) scale(0.100000,-0.100000)"
fill="#000000" stroke="none">
<path d="M2730 6647 c-3 -3 -24 -7 -48 -11 -76 -10 -171 -63 -242 -135 -64
-65 -120 -154 -120 -192 0 -17 -8 -19 -85 -19 -163 0 -278 -44 -381 -146 -103
-102 -154 -235 -148 -385 l2 -65 -93 -47 c-375 -186 -714 -453 -985 -777 -155
-185 -353 -517 -435 -730 -10 -25 -23 -58 -30 -75 -22 -53 -54 -157 -84 -275
-28 -109 -34 -140 -46 -227 -3 -21 -7 -47 -10 -58 -20 -93 -27 -465 -12 -615
10 -106 16 -151 22 -180 2 -14 7 -38 10 -55 3 -16 7 -41 10 -55 3 -14 8 -36
11 -50 37 -177 138 -453 237 -643 142 -272 292 -474 521 -703 288 -287 632
-515 996 -659 52 -20 104 -41 115 -46 72 -29 337 -104 440 -124 249 -47 389
-60 645 -60 165 1 247 5 395 20 33 3 132 19 185 30 14 2 37 7 53 9 15 3 35 7
45 10 9 3 28 7 42 10 224 44 566 174 805 305 252 140 464 299 671 506 146 146
262 287 360 438 37 56 74 113 83 127 26 37 135 256 166 330 43 105 106 289
120 350 1 8 8 33 13 55 11 39 16 65 27 123 3 15 7 36 10 48 2 11 7 45 11 75 3
30 8 56 9 59 9 15 19 235 18 375 l-1 161 161 53 c285 95 533 199 667 280 238
143 150 224 -240 222 -202 -1 -366 -14 -612 -46 l-56 -7 -27 88 c-15 49 -33
103 -40 119 -7 17 -18 46 -25 65 -8 19 -31 73 -52 118 -21 46 -38 85 -38 86 0
7 -104 195 -127 231 -15 22 -38 58 -52 80 -126 197 -364 463 -551 616 -36 30
-67 56 -70 59 -12 13 -153 113 -235 166 -135 88 -305 179 -450 241 -44 19 -92
39 -108 46 -18 8 -25 17 -21 27 11 26 13 143 3 195 -5 28 -27 87 -49 131 -84
171 -254 275 -445 275 -84 -1 -109 -5 -180 -32 -57 -21 -175 -102 -175 -119 0
-26 -20 -6 -30 29 -48 178 -187 318 -361 364 -52 13 -180 23 -189 14z m1724
-2282 c16 -3 37 -10 48 -16 10 -5 18 -7 18 -5 0 9 114 -56 154 -88 67 -54 156
-187 171 -256 2 -8 8 -35 14 -60 15 -66 7 -195 -18 -264 -67 -191 -213 -318
-412 -362 -26 -6 -165 -6 -189 -1 -217 50 -374 196 -425 393 -74 290 105 590
393 658 55 13 185 14 246 1z"/>
</g>
</svg>
