<?xml version="1.0" encoding="UTF-8" standalone="no"?>
<svg
   xmlns:dc="http://purl.org/dc/elements/1.1/"
   xmlns:cc="http://creativecommons.org/ns#"
   xmlns:rdf="http://www.w3.org/1999/02/22-rdf-syntax-ns#"
   xmlns:svg="http://www.w3.org/2000/svg"
   xmlns="http://www.w3.org/2000/svg"
   xmlns:sodipodi="http://sodipodi.sourceforge.net/DTD/sodipodi-0.dtd"
   xmlns:inkscape="http://www.inkscape.org/namespaces/inkscape"
   width="2500"
   height="2500"
   viewBox="0 0 192.756 192.756"
   version="1.1"
   id="svg12"
   sodipodi:docname="burger-king-4199.svg"
   inkscape:version="0.92.4 5da689c313, 2019-01-14">
  <metadata
     id="metadata18">
    <rdf:RDF>
      <cc:Work
         rdf:about="">
        <dc:format>image/svg+xml</dc:format>
        <dc:type
           rdf:resource="http://purl.org/dc/dcmitype/StillImage" />
      </cc:Work>
    </rdf:RDF>
  </metadata>
  <defs
     id="defs16" />
  <sodipodi:namedview
     pagecolor="#ffffff"
     bordercolor="#666666"
     borderopacity="1"
     objecttolerance="10"
     gridtolerance="10"
     guidetolerance="10"
     inkscape:pageopacity="0"
     inkscape:pageshadow="2"
     inkscape:window-width="1920"
     inkscape:window-height="1080"
     id="namedview14"
     showgrid="false"
     inkscape:zoom="0.0944"
     inkscape:cx="1250"
     inkscape:cy="1250"
     inkscape:window-x="0"
     inkscape:window-y="0"
     inkscape:window-maximized="0"
     inkscape:current-layer="g10" />
  <g
     id="g10"
     style="clip-rule:evenodd;fill-rule:evenodd">
    <path
       d="M 0,0 H 192.756 V 192.756 H 0 Z"
       id="path2"
       inkscape:connector-curvature="0"
       style="fill:#ffffff" />
    <path
       d="m 96.379,189.918 c 51.667,0 93.542,-41.877 93.542,-93.538 0,-51.659 -41.875,-93.542 -93.542,-93.542 -51.657,0 -93.545,41.883 -93.545,93.542 0,51.661 41.889,93.538 93.545,93.538 z"
       id="path4"
       inkscape:connector-curvature="0"
       style="fill:#ffffff" />
    <path
       d="m 165.408,115.062 h 2.338 v 6.057 h 1.373 v -6.057 h 2.326 v -1.179 h -6.037 z m 14.153,-1.179 -2.272,5.892 -2.31,-5.892 h -2.291 v 7.236 h 1.238 v -6.215 h 0.017 l 2.45,6.215 h 1.679 l 2.385,-6.215 h 0.022 v 6.215 h 1.371 v -7.236 z M 168.91,99.949 c 0.1,-3.623 0,-15.061 0,-15.061 l -18.771,4.062 c 0,0 0,1.419 -0.01,4.391 0.037,2.893 1.436,4.469 4.479,3.914 0.957,-0.16 2.422,-0.629 2.422,-0.629 l 0.021,3.584 c -0.008,-0.098 0.271,2.002 -4.457,2.945 -6.186,0.969 -8.994,-2.842 -9.072,-9.574 0.125,-7.218 4.203,-11.379 9.145,-12.516 5.568,-1.274 8.723,0.048 10.576,0.332 6.215,0.934 7.977,-8.388 2.318,-10.573 -4.18,-1.688 -9.598,-1.993 -14.775,-0.964 -6.904,1.38 -20.484,7.166 -20.523,25.94 0.039,14.925 11.039,19.783 20.918,18.66 7.096,-0.812 12.006,-3.664 14.699,-6.312 2.45,-2.41 3.03,-5.726 3.03,-8.199 z M 121.893,77.825 c -3.303,0.935 -5.852,3.042 -5.852,8.608 0,1.965 -0.008,13.272 -0.008,13.272 0,0 -7.527,-9.453 -12.465,-14.385 -2.635,-2.627 -6.992,-1.063 -6.992,-1.063 l -6.434,1.946 0.017,44.244 c 0,0 5.759,-1.982 6.261,-2.152 4.626,-1.59 6.31,-4.35 6.296,-9.115 -0.062,-5.166 -0.074,-15.262 -0.074,-15.262 l 13.398,15.436 c 2.17,2.244 4.902,2.439 7.393,1.705 2.58,-0.754 4.736,-3.113 4.795,-6.445 0.029,-11.141 -0.006,-38.338 -0.006,-38.338 0,0 -3.452,0.73 -6.329,1.549 z m -49.829,22.202 c 0,5.928 -0.01,36.771 -0.01,36.771 0,0 3.736,-1.283 7.22,-2.592 4.948,-1.861 6.814,-4.416 6.814,-9.609 0,-4.463 0.014,-37.391 0.014,-37.391 0,0 -4.034,1.177 -7.313,2.362 -4.266,1.547 -6.725,4.011 -6.725,10.459 z m -13.373,19.655 c 0,0 8.456,-13.346 9.841,-15.578 1.839,-2.957 0.917,-6.631 -2.441,-8.15 -3.708,-1.685 -6.888,0.193 -8.238,2.267 l -11.375,19.354 -0.02,-15.605 -13.415,5.48 -0.045,44.205 9.453,-3.963 c 0,0 1.853,-0.529 2.972,-2.287 1.028,-1.613 0.99,-4.34 0.99,-4.34 l 0.014,-13.988 10.558,11.207 c 2.324,2.408 6.586,3.639 10.34,0.607 3.4,-2.748 2.874,-7.426 0.98,-9.52 z M 48.095,88.477 c -0.055,-3.209 -2.468,-5.532 -5.294,-6 2.871,-2.305 4.19,-4.939 4.19,-8.025 0,-4.629 -4.072,-7.673 -11.001,-5.149 -2.434,0.887 -9.917,3.938 -9.917,3.938 l 0.027,31.938 11.86,-4.844 C 43.763,97.934 48.2,94.65 48.095,88.477 Z M 34.266,75.726 c 2.618,-1.352 4.56,-0.737 4.54,1.616 -0.014,2.063 -1.274,3.667 -3.044,4.533 -0.488,0.233 -0.914,0.424 -1.496,0.66 z M 66.5,58.57 c -1.817,0.528 -3.944,1.359 -3.944,1.359 l -0.014,19.974 c -0.024,1.992 -0.326,4.482 -2.777,5.095 -1.88,0.475 -2.777,-0.777 -2.781,-2.761 L 56.953,65.882 c 0,-2.72 -1.888,-3.536 -4.124,-2.791 -2.528,0.845 -4.052,1.451 -4.052,1.451 0,0 0.032,14.149 -0.003,19.8 -0.027,6.642 4.543,9.95 11.518,7.886 6.15,-1.816 10.253,-5.258 10.329,-14.091 L 70.611,61.362 C 70.61,58.648 68.75,57.928 66.5,58.57 Z m -32.179,36.724 0.011,-7.819 c 3.265,-1.638 5.152,-0.318 5.19,2.125 0.042,2.383 -1.461,3.982 -3.369,4.865 -0.773,0.362 -1.832,0.829 -1.832,0.829 z M 139.404,65.818 c 0,-1.953 0.014,-3.438 0.014,-3.438 l -9.621,2.106 0.012,-5.666 c 0,0 4.723,-1 6.035,-1.285 1.643,-0.357 2.504,-1.258 2.504,-3.136 0,-1.759 -0.008,-3.271 -0.008,-3.271 l -8.531,1.806 -0.004,-4.486 c 0,0 4.432,-0.917 6.824,-1.428 1.854,-0.387 2.471,-1.664 2.471,-3.417 0,-1.143 0.023,-3.406 0.023,-3.406 -4.252,0.75 -12.342,2.377 -17.379,3.524 l -0.07,29.293 c 0,0 9.586,-2.259 14.859,-3.397 1.77,-0.39 2.871,-1.635 2.871,-3.799 z M 94.049,80.346 c 1.801,-1.692 1.687,-4.497 0.083,-6.046 l -5.205,-5.004 c 2.373,-1.963 5.007,-4.839 5.045,-9.562 0.079,-4.971 -4.297,-7.769 -10.447,-6.34 -3.955,0.922 -10.683,3.261 -10.683,3.261 l -0.017,30.176 c 0,0 3.258,-1.129 4.792,-1.648 1.833,-0.703 3.287,-2.246 3.308,-4.363 0,-2.262 0.024,-7.875 0.024,-7.875 l 6.943,7.166 c 2.231,2.278 5.084,1.236 6.157,0.235 z m 55.027,-16.63 c 0.006,-2.141 -0.02,-7.037 -0.02,-7.037 l 6.803,7.971 c 1.236,1.371 3.367,2.084 5.529,0.722 2.184,-1.387 2.262,-4.219 0.779,-5.871 a 1534.718,1534.718 0 0 1 -5.223,-5.869 c 2.236,-1.514 4.871,-4.042 4.91,-8.236 0.084,-4.776 -3.99,-8.134 -10.031,-7.362 -2.189,0.284 -10.635,1.77 -10.635,1.77 l -0.002,28.93 4.422,-0.869 c 2.212,-0.454 3.443,-2.014 3.468,-4.149 z m -68.137,4.712 v -8.376 c 1.589,-0.576 4.654,-1.307 4.699,2.026 0.052,3.892 -4.695,6.344 -4.699,6.35 z m 28.446,8.345 c 4.465,-0.91 6.68,-2.348 8.221,-3.698 1.537,-1.353 2.178,-3.366 2.178,-5.089 V 56.591 l -11.977,2.72 c 0,0 -0.018,1.266 -0.025,3.336 0.025,1.55 1.113,2.551 2.668,2.229 0.986,-0.199 1.775,-0.376 1.775,-0.376 l 0.021,3.321 c 0.014,1.313 -1.965,2.178 -4.014,2.125 -2.871,-0.074 -4.471,-2.308 -4.516,-6.548 0.094,-5.592 2.719,-8.87 6.299,-9.795 1.793,-0.454 3.424,-0.23 4.678,-0.068 3.092,0.504 4.873,-0.991 4.936,-3.542 0.062,-2.734 -2.369,-4.422 -7.566,-4.24 -11.281,0.394 -17.047,8.496 -17.047,18.165 -0.001,9.904 6.47,14.276 14.369,12.855 z m 44.303,-30.116 c 0.051,3.766 -4.637,5.542 -4.645,5.549 l -0.01,-7.819 c 1.471,-0.325 4.6,-0.904 4.655,2.27 z"
       id="path6"
       style="fill:#000000"
       inkscape:connector-curvature="0" />
    <path
       d="m 138.428,34.697 c 0.764,-0.128 1.457,-0.379 1.756,-1.089 0.412,-1.024 -0.438,-2.034 -0.438,-2.034 0,0 -6.65,-11.32 -30.205,-13.833 -12.608,-1.347 -29.772,1.21 -41.809,7.695 -21.8,11.751 -25.059,31.1 -25.059,31.1 -0.121,0.468 -0.333,1.912 0.159,2.528 0.496,0.62 1.219,0.616 2.126,0.312 7.694,-2.599 30.624,-10.198 45.095,-14.045 20.599,-5.461 37.515,-8.783 48.375,-10.634 z M 127.469,29.98 c -0.066,3.177 -5.254,4.142 -12.383,5.89 2.791,-0.829 5.641,-3.726 5.615,-6.138 -0.045,-3.809 -8.594,-8.6 -22.979,-9.995 15.081,-1.404 29.87,4.915 29.747,10.243 z m 27.929,88.764 c -0.572,-0.596 -1.379,-0.604 -2.496,-0.334 -24.959,5.861 -66.502,18.541 -90.444,28.799 -1.035,0.447 -1.499,0.602 -1.828,1.348 -0.492,1.156 0.647,2.297 0.647,2.297 4.879,6.127 26.587,14.006 50.087,8.203 33.783,-8.326 43.537,-34.107 44.4,-37.703 0.174,-0.733 0.316,-1.909 -0.366,-2.61 z M 53.148,50.998 c -0.288,2.481 -3.387,2.152 -3.189,-0.196 0.488,-5.867 9.702,-20.72 24.083,-26.327 -8.065,5.607 -18.1,15.804 -20.894,26.523 z m 110.549,72.186 c -12.326,27.686 -35.979,46.951 -66.969,47.393 -22.58,0.312 -41.988,-7.215 -55.157,-19.445 l -11.444,4.893 v -17.721 c -8.691,-12.041 -13.93,-27.818 -13.93,-45.709 0,-47.05 36.036,-84.142 86.305,-84.142 8.203,0 15.619,1.28 21.211,2.542 -8.617,-2.758 -17.17,-4.247 -26.707,-4.247 -53.935,0 -90.241,43.742 -90.241,88.847 0,49.154 38.561,90.337 89.182,90.337 48.346,0 74.424,-34.086 82.768,-54.584 z m -15.283,4.593 c -5.688,12.031 -18.242,21.574 -28.945,25.254 12.047,-6.848 20.721,-17.881 24.049,-26.438 1.332,-4.083 6.531,-2.294 4.896,1.184 z"
       id="path8"
       style="fill:#000000"
       inkscape:connector-curvature="0" />
  </g>
</svg>
