<?xml version="1.0" encoding="UTF-8" standalone="no"?>
<svg
   xmlns:dc="http://purl.org/dc/elements/1.1/"
   xmlns:cc="http://creativecommons.org/ns#"
   xmlns:rdf="http://www.w3.org/1999/02/22-rdf-syntax-ns#"
   xmlns:svg="http://www.w3.org/2000/svg"
   xmlns="http://www.w3.org/2000/svg"
   xmlns:sodipodi="http://sodipodi.sourceforge.net/DTD/sodipodi-0.dtd"
   xmlns:inkscape="http://www.inkscape.org/namespaces/inkscape"
   width="1865.3992"
   height="555.58881"
   viewBox="11.238 10.874 742.32142 221.108"
   version="1.1"
   id="svg6"
   sodipodi:docname="kfc-kentucky-fried-chicken.svg"
   inkscape:version="0.92.4 5da689c313, 2019-01-14">
  <metadata
     id="metadata12">
    <rdf:RDF>
      <cc:Work
         rdf:about="">
        <dc:format>image/svg+xml</dc:format>
        <dc:type
           rdf:resource="http://purl.org/dc/dcmitype/StillImage" />
      </cc:Work>
    </rdf:RDF>
  </metadata>
  <defs
     id="defs10" />
  <sodipodi:namedview
     pagecolor="#ffffff"
     bordercolor="#666666"
     borderopacity="1"
     objecttolerance="10"
     gridtolerance="10"
     guidetolerance="10"
     inkscape:pageopacity="0"
     inkscape:pageshadow="2"
     inkscape:window-width="1920"
     inkscape:window-height="1080"
     id="namedview8"
     showgrid="false"
     inkscape:zoom="0.1424"
     inkscape:cx="826.48957"
     inkscape:cy="283.36267"
     inkscape:window-x="0"
     inkscape:window-y="0"
     inkscape:window-maximized="0"
     inkscape:current-layer="svg6" />
  <path
     d="m 669.51276,189.7575 c 17.622,-0.053 39.723,-4.964 57.164,-10.76 l -10.426,44.805 c -21.877,4.347 -46.445,8.06 -75.301,8.177 -90.18,0.395 -128.986,-45.934 -129.114,-94.015 -0.208,-64.371004 68.983,-128.6130043 180.429,-127.063004 23.641,0.32 46.157,4.555 61.312,9.498 l -14.739,52.843 h -7.474 c -9.216,-12.05 -23.215,-21.185 -50.835,-21.185 -56.481,0 -91.427,30.912 -91.319,72.121004 0.107,37.299 32.281,65.713 80.303,65.579 m -325.853,-176.818004 -3.521,14.005 c 0,0 21.371,2.338 14.813,23.646 l -48.592,176.625004 97.146,0.165 3.654,-15.182 c 0,0 -18.164,-4.4 -13.444,-21.147 0.378,-1.545 14.26,-52.428 14.26,-52.428 l 44.538,-0.074 c 22.171,0.117 29.506,11.612 29.506,11.612 l 12.913,-52.449004 h -75.033 l 11.16,-41.198 65.186,-0.075 c 11.996,0 20.396,8.044 20.396,13.909 h 7.378 l 14.377,-57.408 z m -73.671,182.744004 c -5.737,-6.158 -55.741,-84.097 -55.741,-84.097 l 91.421,-73.160004 c 15.395,-12.854 26.331,-11.49 26.331,-11.49 l 3.58,-14.095 -113.715,0.091 -3.494,14.005 c 7.729,0.522 18.527,7.431 9.685,15.618 -1.098,1.028 -91.341,69.938004 -91.341,69.938004 l 19.417,-70.353004 c 4.017,-13.589 18.612,-15.203 18.612,-15.203 l 3.558,-14.053 -108.566995,0.054 -3.484,14.037 c 5.173,1.3 19.987,4.149 14.83,23.641 -36.229,130.983004 -32.03,117.949004 -34.476,125.140004 -9.913,37.826 -25.862,35.904 -31.658,36.298 l -3.744,15.161 H 124.72976 l 3.83,-15.348 c 0,0 -18.043,-3.623 -14.585,-16.593 3.409,-12.849 17.664,-64.402 17.664,-64.402 19.646,31.609 24.253,35.498 47.937,68.114 23.699,32.617 49.061,28.303 116.196,28.324 l 3.729,-15.097 c -14.329,0.069 -23.763,-10.377 -29.511,-16.524"
     id="path4"
     style="fill:#000000"
     inkscape:connector-curvature="0" />
</svg>
