<?xml version="1.0" encoding="UTF-8" standalone="no"?>
<!-- Generator: Adobe Illustrator 19.2.1, SVG Export Plug-In . SVG Version: 6.00 Build 0)  -->

<svg
   xmlns:dc="http://purl.org/dc/elements/1.1/"
   xmlns:cc="http://creativecommons.org/ns#"
   xmlns:rdf="http://www.w3.org/1999/02/22-rdf-syntax-ns#"
   xmlns:svg="http://www.w3.org/2000/svg"
   xmlns="http://www.w3.org/2000/svg"
   xmlns:sodipodi="http://sodipodi.sourceforge.net/DTD/sodipodi-0.dtd"
   xmlns:inkscape="http://www.inkscape.org/namespaces/inkscape"
   version="1.1"
   id="layer"
   x="0px"
   y="0px"
   viewBox="0 0 579.65625 249.11224"
   xml:space="preserve"
   sodipodi:docname="wendys-vector-logo.svg"
   width="579.65625"
   height="249.11224"
   inkscape:version="0.92.4 5da689c313, 2019-01-14"><metadata
   id="metadata77"><rdf:RDF><cc:Work
       rdf:about=""><dc:format>image/svg+xml</dc:format><dc:type
         rdf:resource="http://purl.org/dc/dcmitype/StillImage" /></cc:Work></rdf:RDF></metadata><defs
   id="defs75"><clipPath
     clipPathUnits="userSpaceOnUse"
     id="clipPath104"><rect
       id="rect106"
       width="582.93219"
       height="262.45764"
       x="33.152542"
       y="323.23727" /></clipPath><clipPath
     clipPathUnits="userSpaceOnUse"
     id="clipPath108"><rect
       id="rect110"
       width="582.93219"
       height="262.45764"
       x="33.152542"
       y="323.23727" /></clipPath></defs><sodipodi:namedview
   pagecolor="#ffffff"
   bordercolor="#666666"
   borderopacity="1"
   objecttolerance="10"
   gridtolerance="10"
   guidetolerance="10"
   inkscape:pageopacity="0"
   inkscape:pageshadow="2"
   inkscape:window-width="1920"
   inkscape:window-height="1080"
   id="namedview73"
   showgrid="false"
   inkscape:zoom="1.0237865"
   inkscape:cx="241.22408"
   inkscape:cy="251.104"
   inkscape:window-x="0"
   inkscape:window-y="0"
   inkscape:window-maximized="0"
   inkscape:current-layer="layer" />
<style
   type="text/css"
   id="style2">
	.st0{fill:#E43850;}
	.st1{fill:#FFFFFF;}
	.st2{fill:#29110A;}
	.st3{fill-rule:evenodd;clip-rule:evenodd;fill:#E43850;}
	.st4{fill:#02A9E1;}
	.st5{fill-rule:evenodd;clip-rule:evenodd;fill:#971D3E;}
	.st6{fill-rule:evenodd;clip-rule:evenodd;fill:#FBCBC5;}
	.st7{fill-rule:evenodd;clip-rule:evenodd;fill:#FFFFFF;}
	.st8{fill-rule:evenodd;clip-rule:evenodd;fill:#29110A;}
</style>
<g
   id="g100"
   clip-path="url(#clipPath108)"
   transform="translate(-34.428461,-327.99176)"><path
     id="path4"
     d="m 401.4,445.4 c -3.1,6.7 -6.6,12.6 -10.5,17.7 -3.8,5 -7.8,9 -11.8,12 -3.5,2.6 -6.3,4.5 -8.7,4.1 -1.6,-0.4 -1.4,-3.2 -1.2,-5 0.5,-5.2 2.1,-10.4 4.7,-15.6 2.6,-5.3 5.9,-10.1 9.7,-14.6 3.8,-4.4 8.1,-8.1 12.5,-11 3.6,-2.2 7,-3.8 10.4,-4.7 -0.9,6 -2.6,11.8 -5.1,17.1 m 41.7,-117.2 c -10,-1.6 -17.2,6.3 -20.4,14.1 -1.1,2.7 -1.4,4.1 -2.6,7.7 -1.1,3.4 -1.5,5.9 -2.3,9.6 -0.7,2.5 -1.5,6.5 -1.8,8.2 -0.7,3.3 -0.8,3.8 -1.6,8.6 -0.9,4.9 -1.4,8.1 -2.1,12.4 -0.5,3.2 -0.9,5.9 -1.3,9.2 -7.2,1.8 -14.6,4.7 -21.9,8.8 -7.8,4.4 -15.2,10.3 -21.7,17.2 -6.6,7.1 -12.4,15.3 -17.1,24.7 -4.7,9.4 -7.7,19.9 -8.9,31.2 -0.3,1.4 -0.3,2.9 -0.3,4.5 -0.9,-0.8 -1.9,-1.8 -2.5,-2.9 -1.4,-2.1 -2.5,-4.6 -3.2,-7.8 -0.6,-2.9 -1.1,-6.6 -1,-9.5 0.1,-3.3 0.1,-5.3 0.4,-7.4 0.2,-2.4 0.5,-4.7 1,-6.8 0.2,-1.4 0.4,-2.6 0.5,-3.9 l 0.4,-2.3 c 1.4,-9.1 2,-15.2 1.1,-21.4 -0.6,-4.1 -3.8,-12 -11.8,-12.2 l -2,0.1 c -5.3,0.6 -11.7,3.6 -15.6,6.3 -5.1,3.7 -10,8.3 -14.3,13.7 -1.8,2.3 -3.4,4.4 -4.6,6.3 0.9,-2.4 1.9,-4.9 2.9,-7.2 0.6,-1.5 1.1,-2.9 1.7,-4.5 l 0.2,-0.5 c 1.3,-3.4 2.6,-7 3,-9.8 0.2,-2.6 -0.1,-4.7 -1.2,-6.2 -0.9,-1.3 -1.9,-2.3 -3.2,-2.9 -1.3,-0.6 -2.5,-0.9 -3.8,-0.9 l -2.2,0.1 c -3.1,0.2 -5.8,1.2 -8.2,2.9 -2,1.3 -3.8,2.8 -5.4,4.5 -1.6,1.9 -3,3.9 -4,5.9 -1.8,2.8 -3.4,6.7 -4.9,11.8 -1.4,4.8 -2.9,10 -4.1,15.8 -1.2,5.5 -2.4,11.2 -3.5,16.9 -0.9,5.7 -1.8,10.6 -2.2,14.8 -0.6,5.1 -0.9,10 -1.1,14.7 -0.3,4.8 -0.2,9.2 0.2,13 0.5,4.1 1.4,7.5 2.8,9.9 1.8,3.1 4.8,4.5 8.6,4.1 h 0.2 c 0.7,-0.1 3.2,-0.5 5.5,-1.3 2.1,-0.7 5.4,-3.2 8.1,-7.7 1.6,-2.6 3.3,-9.3 5.1,-17.9 0.5,-2 0.9,-3.7 1.3,-5.2 7.7,-30.9 18.7,-37.3 24.3,-38.5 -0.4,3.5 -0.8,6.9 -1.2,10.5 -0.2,4.5 -0.6,8.6 -0.7,13.3 0.1,9.1 1,14.3 2,18.8 1.2,5.1 3.5,11.3 6.3,14.5 3.2,3.9 6.3,6.3 11.8,6 h 0.1 0.1 c 2.4,-0.3 3.6,-0.6 6.2,-1.7 2.7,-1.3 3.8,-2.2 6.1,-4.5 1.7,-1.7 2.7,-3.3 3.4,-4.8 1,1.9 2.3,3.6 3.9,5.1 2.4,2.2 6,3.4 10.5,3.2 h 0.4 c 0.4,0 1.5,-0.1 5,-0.6 3.2,-0.5 7,-1.8 11.5,-3.8 4.4,-2.1 9.3,-5.3 14.8,-9.5 3.8,-3 7.7,-6.9 11.7,-11.5 -0.4,6.5 -0.7,12.9 2.1,21.5 1.2,3.5 2.6,6.4 4.9,9.7 2.6,3.6 6.6,5.5 11.8,5.5 v 0 h 0.6 c 2.5,-0.5 4.5,-1.2 6.2,-2 1.7,-1 3.5,-2.4 4.9,-4.2 1.9,-2.1 2.9,-4.9 3.3,-8.3 0.2,-1.1 0,-2.2 -0.1,-3.7 -0.3,-1.3 -0.9,-2.3 -1.6,-3.4 l -0.9,-1.4 c -1.7,-3.1 -2.8,-5.8 -3.4,-8 -1.2,-5.7 -1.6,-10.5 -1.3,-19.8 0.1,-4.4 0.4,-9.2 0.8,-13.9 0.4,-4.5 0.8,-9.2 1.4,-14 0.3,-3.2 0.7,-6.3 1,-9.6 0.1,-1.2 0.2,-2.2 0.3,-3 h 0.6 c 2.3,0 4.7,-0.8 7.1,-2.5 2.8,-2 4.6,-5.7 5.1,-11 0.5,-4.4 -0.6,-8.1 -3.2,-10.8 -1.6,-1.6 -3.3,-3 -5.3,-4.1 0.3,-1.8 0.6,-3.3 0.8,-4.8 0.3,-1.8 0.6,-3.5 0.9,-4.8 l 0.6,-2.9 0.5,-2.4 c 0,-0.2 3.2,-15.3 9.4,-37.9 1.1,-3.7 1.6,-6.5 1.7,-8.9 0.5,-3.6 -0.4,-9.4 -6.6,-10.5 m 90,79.6 c 0.4,2.1 0.6,4.7 0.2,7.9 -0.2,3 -0.8,6.3 -1.6,9.9 0,0.2 -4.5,18.4 -6.3,27.1 -1.4,6.9 -2.3,12.4 -3.3,18.7 v 0.4 c -1,6.1 -2.5,19.7 -3.4,29.3 -1.7,18.6 -2.1,23 -7,37.3 -5.2,14.5 -16.5,24.3 -21.9,27.4 -9.7,5.6 -20.7,8.5 -32.6,8.8 v 0 H 457 l -1.8,-0.2 c -1.3,-0.1 -2.7,-0.2 -4.1,-0.4 -12.6,-2.3 -19.7,-10.5 -18.4,-21.2 0.8,-5.6 4.9,-8.9 10.3,-8 5,0.8 9.7,1.3 13.9,1.3 12.9,-0.2 22,-4.6 27.2,-13.9 5.5,-9.5 6.2,-15.9 7.1,-24.7 0.2,-1.1 0.3,-2.2 0.4,-3.4 0.5,-4.5 0.9,-8.7 1.4,-13.1 -2.2,2.8 -4.2,5.3 -6.1,7.3 -4,3.9 -7.7,6.9 -11,8.9 -3.9,2.4 -7.8,3.8 -11.4,4.2 h -0.1 v 0 c -6,-0.1 -10.7,-2.5 -13.8,-7.1 -2.7,-3.9 -4.8,-9 -6.2,-14.8 -1.5,-5.7 -2.1,-11.8 -2.2,-18.3 -0.1,-6.1 0.2,-12 0.7,-17.3 1.6,-16.4 4.8,-29.5 9.7,-38.8 5.5,-10.5 12.4,-15.7 20.7,-15.5 0.3,0 1,0 2.2,0.2 1.4,0.2 2.7,0.7 3.9,1.4 1.3,0.9 2.3,2.2 3.2,3.8 0.8,1.8 1.1,4.1 0.8,6.8 -0.2,2.7 -1.2,5.8 -3,9.2 -1.6,3.3 -3.1,6.9 -4.6,10.8 -1.2,3.5 -2.4,7.5 -3.6,12.1 -1.2,4.5 -2,9.3 -2.5,14.4 -0.1,0.8 -0.2,2.6 -0.3,5.4 -0.2,2.3 -0.1,4.6 0.1,7.3 0.1,2.3 0.5,4.2 1.3,5.8 l 1.7,1.6 1.7,0.3 c 1.1,0 2.3,-0.4 3.4,-1.2 1,-0.6 3.1,-2.6 5.7,-6.1 1.8,-2.6 5.3,-7.8 8.1,-14.8 1.4,-3.3 3.1,-8.6 4.9,-14.3 2,-6.4 5.5,-18.9 7.7,-24.2 1.3,-3.3 2.7,-6.2 4.4,-8.9 1.4,-2.5 4,-5 5.9,-6.3 3,-2 6.1,-3 9.7,-2.8 0.8,0 1.6,0.2 2.8,0.4 1.5,0.5 2.8,1.3 4,2.6 0.9,0.7 1.7,2.4 2.3,4.7 m 6.2,-2.8 c -0.3,-1.5 -0.6,-3.2 0.1,-5.8 0.3,-1.1 1.3,-3.7 2,-6.2 0.6,-3.2 0.9,-6.4 0.2,-9.4 -0.7,-2.7 -0.9,-6.5 -0.1,-8.7 1.1,-3.3 4.1,-5.2 6.1,-5.5 3.2,-0.6 6.4,-0.4 9.1,1.1 3,1.4 5.4,5.1 6.1,7.7 1.4,5.6 0.7,10 0.2,13.6 -0.7,4.2 -2.5,8.1 -4.4,11.2 -1.3,2.3 -3.4,4.2 -5.3,5.6 -2.3,1.7 -6.1,2.4 -10,0.9 -1.8,-0.6 -3.6,-3.1 -4,-4.5 m 65.9,78.6 c -1,7.2 -3.7,13.1 -8.3,17.6 -4.3,4.2 -9.2,7.7 -14.7,10.1 -5.4,2.4 -10.9,4 -16.4,4.6 -5.2,0.7 -9.4,0.8 -13.1,0.5 l -1,-0.2 c -8.8,-1.1 -14.7,-4 -18.2,-8.9 -3.4,-4.8 -4.8,-9.8 -4.2,-14.9 0.8,-6 3.9,-9 6.3,-10.3 2.9,-1.6 5.4,-2.5 7.8,-2.2 h 0.2 c 2.3,0.4 5,1.5 8,3.7 2.2,1.5 5,2.5 8.5,3 4.6,0.6 8.2,0.4 10.5,-0.9 1.6,-0.8 2.6,-1.7 2.6,-2.5 0.1,-0.3 0.2,-1.1 -1.1,-2.3 -1.5,-1.4 -3.6,-3 -6.2,-4.3 -2.8,-1.4 -5.8,-3 -9.2,-4.6 -3.6,-1.7 -6.9,-3.6 -9.8,-5.8 -3.2,-2.3 -5.8,-5.1 -7.8,-8.2 -2.2,-3.5 -2.9,-7.8 -2.2,-12.6 0.6,-5.4 2.9,-11 6.8,-16.7 3.6,-5.2 8.1,-10.1 13.4,-14.4 5.3,-4.1 11.2,-7.4 17.5,-9.6 6.5,-2.5 13.1,-3.2 19.2,-2.2 6,0.9 10.6,3.8 13.8,8.3 3.1,4.7 4.1,11.2 3,19.2 -0.5,4 -1.9,7.4 -4,10.5 -1.8,2.6 -5.3,5.6 -11.7,4.5 -4.3,-0.6 -6,-3.1 -6.8,-5 -0.5,-1.6 -1.1,-3.3 -1.4,-5.2 l -1,-3.4 -2.4,-0.7 c 0,0 -1,-0.1 -3.2,0.6 -1.9,0.6 -3.8,1.5 -5.6,2.6 -1.9,1.1 -3.6,2.5 -5.1,4.2 -1.2,1.2 -1.9,2.7 -2.1,4 -0.1,0.7 -0.2,1.9 1.2,3.2 1.7,1.7 4,3.4 6.6,5.1 2.7,1.6 5.8,3.4 9.4,5.1 3.8,2 7.3,4.2 10.3,6.5 3.2,2.6 5.9,5.5 7.9,8.7 2.3,3.8 3.1,8.1 2.5,12.9 m -377,-29.7 c -3,4.7 -5.9,8.5 -9.1,11.3 -3.5,3.2 -6.3,4.9 -9.5,6.8 -1.5,0.8 -2.7,1.3 -3.8,1.5 0.6,-2.9 1.5,-6.6 2.8,-9.8 2,-4.8 4.3,-9.4 7.3,-13.9 3.4,-5.2 6.2,-8.7 9.1,-11.2 1.9,-1.7 3.7,-2.9 4.9,-3 3,-0.5 3,3.3 3,4.1 0,4.9 -2.4,10.6 -4.7,14.2 m 19.2,-39.2 c -2.3,-1.6 -5,-2.7 -7.7,-2.8 -2.5,-0.2 -5.5,-0.1 -7.7,0.3 h -0.2 c -4.7,0.9 -9.6,2.5 -13.1,4.6 -3.6,1.9 -7.1,4.5 -10.4,7.7 -2.8,2.7 -6,5.8 -8.8,9.6 -1.7,2.5 -5.1,7.4 -7.9,13 -3.7,7.5 -7,16.1 -9.9,26.4 -1.9,0 -5.8,-0.9 -7.7,-1.2 -1.3,-0.3 -1.8,-0.4 -2,-0.5 h -0.8 c 8.5,-36.5 14.4,-57.3 18.8,-71.7 2.3,-7 4.7,-14 7.1,-21 1.8,-3.9 2.9,-9.4 2.8,-12 -0.5,-7.3 -5.4,-14.7 -14.1,-12.8 -9.2,2.2 -14.6,14.4 -22,41.2 -6.2,22.5 -9.7,37 -14.8,61.4 -2.1,11.1 -4.4,22.2 -6.5,33.4 -0.3,1.6 -0.7,3.4 -1,5 -0.8,3.5 -1.1,4.5 -2.3,4.7 -0.6,0.1 -1.3,-0.2 -1.7,-1.6 -0.7,-3.2 -1.3,-9.6 -1.8,-17.8 -0.6,-19.1 -2.1,-38.8 -1.5,-63.7 0.4,-14.2 0.4,-16.6 -0.5,-20.2 -1.7,-7.1 -10.2,-11.3 -19.4,-8.9 -9.2,2.5 -11.9,13.1 -17.2,27.7 -3.6,9.9 -9,27.5 -14.4,44.6 -5,17.6 -11,39.2 -11,39.2 -0.4,1.5 -0.7,3 -1.2,4.6 l -1,4.4 c -1.3,3.7 -1.7,4.4 -2.7,4.7 l -1.6,-1.6 c -0.6,-2.3 -0.5,-16.5 -0.3,-23.9 0.3,-15.2 1.8,-31.7 3.2,-46.5 0.8,-10.7 3.4,-29.4 4.2,-40 0.3,-3.2 0.6,-6.6 0.6,-8.9 0.2,-6.8 -0.3,-10 -3.1,-13.4 -4.6,-4.2 -10.1,-3.9 -16.3,-2.4 -10.2,2.5 -17.9,8.9 -17,12.5 l 1.2,1.8 c 1.5,2.3 2.3,3.6 3,5.9 0.8,2.8 1.1,6.6 1.1,12.7 -0.2,5.5 -0.5,11 -0.7,16.6 -1.3,16.7 -3.2,46.6 -3.7,67.1 -0.4,17.7 0.1,30 1.5,47.5 0.7,8.8 2.5,16 3.5,19.8 1.6,7 5.1,14.7 11,16.2 4.3,1.2 7.8,0.8 13.5,-0.7 5.3,-1.4 13.2,-6.6 14.9,-14.8 2.3,-9.2 4.5,-18.4 6.8,-27.5 2,-9.8 6.6,-27.2 10.4,-42.2 2.3,-8.9 5.2,-19 6.7,-24.2 1,-2.4 1.5,-3.3 2,-3.4 l 1.1,0.6 0.2,1.7 v 1.8 c 0,1.9 0.1,3.7 0.2,5.7 0.4,18.3 3.8,50 7,63 2.1,8.4 2.7,18.9 15.3,20.9 5.8,0.9 10.7,-0.8 10.7,-0.8 9.2,-2.9 11.7,-8.5 13.8,-18 1.4,-6 5.6,-22.4 7.9,-33 0.6,-3.2 1.3,-6.4 1.9,-9.3 1.8,0.5 9.5,1.8 12.8,2 l 0.2,2.2 0.2,1.7 0.3,2.4 0.8,3.2 c 1.3,5.5 3.4,10.3 6.1,14.1 2.8,3.7 5.5,6.2 9.3,8.4 3.7,2.1 9.9,3 15.9,2.3 l 2.3,-0.2 0.5,-0.1 1.1,-0.2 0.1,-0.1 2.8,-0.6 c 9.3,-2.8 21.3,-11.4 25.5,-23.9 1.8,-4.9 0.8,-8.1 -0.3,-9.8 -1.2,-1.8 -3.2,-3 -5.1,-3 l -2,0.2 c -4.1,0.8 -7.1,3.1 -9.8,5.2 -2.4,1.9 -4.7,3.7 -7.6,4.3 -3.3,0.7 -5.6,0.5 -7.4,-0.4 -2.1,-1 -2.8,-1.9 -3.7,-4.1 -0.5,-1.4 -0.8,-2.9 -1,-4.8 5.3,-1.4 11.4,-4.2 16.4,-7.5 5.6,-3.8 10.8,-8.4 15.2,-13.7 4.5,-5.3 8.2,-11.3 11.1,-17.6 2.7,-6 4.8,-14.1 5.2,-20.9 0.4,-5.3 -0.1,-9.7 -1.6,-13 -1.5,-3.6 -3.4,-6 -5.7,-7.6"
     class="st0"
     inkscape:connector-curvature="0"
     style="fill:#000000" /></g>

































</svg>